<svg xmlns="http://www.w3.org/2000/svg" xmlns:svg="http://www.w3.org/2000/svg" id="svg817" width="48" height="48" fill="#985885" version="1.1" viewBox="-100 -100 1224 1224"><metadata id="metadata823"/><rect id="rect825" width="621.198" height="400.453" x="174.516" y="386.77" fill="#fff" fill-opacity="1" fill-rule="nonzero" stroke="none" stroke-dasharray="none" stroke-dashoffset="0" stroke-miterlimit="4" stroke-opacity="1" stroke-width="10.355"/><path id="path815" d="M892.268 514.49c2.442-11.108 3.732-22.646 3.732-34.49 0-88.366-71.634-160-160-160-14.224 0-28.014 1.868-41.134 5.352-24.796-77.352-97.288-133.352-182.866-133.352-87.348 0-161.054 58.336-184.326 138.17-22.742-6.62-46.792-10.17-71.674-10.17-141.384 0-256 114.616-256 256 0 141.382 114.616 256 256 256h608c88.366 0 160-71.632 160-160 0-78.718-56.854-144.16-131.732-157.51zM416 768l-160-160 64-64 96 96 224-224 64 64-288 288z"/></svg>